<svg width="123" height="24" viewBox="0 0 123 24" fill="none" xmlns="http://www.w3.org/2000/svg">
<path d="M0 17.5V14.5L8.9519 12.225V11.775L0 9.5V6.5L11.0056 9.4V14.6L0 17.5Z" fill="#10B981"/>
<path d="M13.0987 14.65H26V17.5H13.0987V14.65Z" fill="#10B981"/>
<path d="M37.264 13.776V18H35.152V6.8H39.536C40.112 6.8 40.6133 6.896 41.04 7.088C41.4667 7.26933 41.8187 7.51467 42.096 7.824C42.384 8.12267 42.5973 8.46933 42.736 8.864C42.8853 9.248 42.96 9.64267 42.96 10.048V10.432C42.96 10.848 42.8853 11.2587 42.736 11.664C42.5973 12.0587 42.384 12.416 42.096 12.736C41.8187 13.0453 41.4667 13.296 41.04 13.488C40.6133 13.68 40.112 13.776 39.536 13.776H37.264ZM37.264 11.76H39.328C39.7973 11.76 40.1653 11.632 40.432 11.376C40.7093 11.12 40.848 10.7893 40.848 10.384V10.192C40.848 9.78667 40.7093 9.456 40.432 9.2C40.1653 8.944 39.7973 8.816 39.328 8.816H37.264V11.76ZM44.6609 10.064H48.0209V11.216H48.3089C48.4582 10.7787 48.7089 10.4427 49.0609 10.208C49.4235 9.96267 49.8555 9.84 50.3569 9.84C51.1462 9.84 51.7809 10.0907 52.2609 10.592C52.7409 11.0827 52.9809 11.8347 52.9809 12.848V13.2L50.9009 13.392V13.168C50.9009 12.7307 50.7889 12.384 50.5649 12.128C50.3409 11.8613 50.0049 11.728 49.5569 11.728C49.1089 11.728 48.7569 11.8827 48.5009 12.192C48.2449 12.5013 48.1169 12.944 48.1169 13.52V16.08H49.9409V18H44.4689V16.08H46.1009V11.984H44.6609V10.064ZM62.6178 14.128C62.6178 14.7893 62.5058 15.376 62.2818 15.888C62.0578 16.3893 61.7538 16.816 61.3698 17.168C60.9858 17.5093 60.5431 17.7707 60.0418 17.952C59.5511 18.1333 59.0338 18.224 58.4898 18.224C57.9458 18.224 57.4231 18.1333 56.9218 17.952C56.4311 17.7707 55.9938 17.5093 55.6098 17.168C55.2258 16.816 54.9218 16.3893 54.6978 15.888C54.4738 15.376 54.3618 14.7893 54.3618 14.128V13.936C54.3618 13.2853 54.4738 12.7093 54.6978 12.208C54.9218 11.696 55.2258 11.264 55.6098 10.912C55.9938 10.56 56.4311 10.2933 56.9218 10.112C57.4231 9.93067 57.9458 9.84 58.4898 9.84C59.0338 9.84 59.5511 9.93067 60.0418 10.112C60.5431 10.2933 60.9858 10.56 61.3698 10.912C61.7538 11.264 62.0578 11.696 62.2818 12.208C62.5058 12.7093 62.6178 13.2853 62.6178 13.936V14.128ZM58.4898 16.304C58.7778 16.304 59.0498 16.256 59.3058 16.16C59.5618 16.064 59.7858 15.9253 59.9778 15.744C60.1698 15.5627 60.3191 15.344 60.4258 15.088C60.5431 14.8213 60.6018 14.5227 60.6018 14.192V13.872C60.6018 13.5413 60.5431 13.248 60.4258 12.992C60.3191 12.7253 60.1698 12.5013 59.9778 12.32C59.7858 12.1387 59.5618 12 59.3058 11.904C59.0498 11.808 58.7778 11.76 58.4898 11.76C58.2018 11.76 57.9298 11.808 57.6738 11.904C57.4178 12 57.1938 12.1387 57.0018 12.32C56.8098 12.5013 56.6551 12.7253 56.5378 12.992C56.4311 13.248 56.3778 13.5413 56.3778 13.872V14.192C56.3778 14.5227 56.4311 14.8213 56.5378 15.088C56.6551 15.344 56.8098 15.5627 57.0018 15.744C57.1938 15.9253 57.4178 16.064 57.6738 16.16C57.9298 16.256 58.2018 16.304 58.4898 16.304ZM72.6066 18H70.5906V12.432C70.5906 12.208 70.532 12.0427 70.4146 11.936C70.308 11.8187 70.164 11.76 69.9826 11.76C69.7693 11.76 69.5986 11.824 69.4706 11.952C69.3533 12.08 69.2946 12.272 69.2946 12.528V18H67.2786V12.432C67.2786 12.208 67.2146 12.0427 67.0866 11.936C66.9693 11.8187 66.8253 11.76 66.6546 11.76C66.4626 11.76 66.3026 11.824 66.1746 11.952C66.0466 12.08 65.9826 12.272 65.9826 12.528V18H63.9666V10.064H65.9826V10.832H66.2706C66.3346 10.544 66.4786 10.3093 66.7026 10.128C66.9373 9.936 67.2413 9.84 67.6146 9.84C67.9666 9.84 68.2653 9.936 68.5106 10.128C68.756 10.3093 68.9213 10.544 69.0066 10.832H69.2946C69.38 10.544 69.556 10.3093 69.8226 10.128C70.1 9.936 70.4413 9.84 70.8466 9.84C71.38 9.84 71.8066 10.0213 72.1266 10.384C72.4466 10.736 72.6066 11.2267 72.6066 11.856V18ZM76.0355 21.2H74.0195V10.064H76.0355V11.216H76.3235C76.5368 10.7787 76.8462 10.4427 77.2515 10.208C77.6568 9.96267 78.1742 9.84 78.8035 9.84C79.2728 9.84 79.7155 9.93067 80.1315 10.112C80.5582 10.2933 80.9262 10.56 81.2355 10.912C81.5555 11.2533 81.8062 11.6747 81.9875 12.176C82.1795 12.6773 82.2755 13.248 82.2755 13.888V14.176C82.2755 14.8267 82.1848 15.4027 82.0035 15.904C81.8222 16.4053 81.5768 16.832 81.2675 17.184C80.9582 17.5253 80.5902 17.7867 80.1635 17.968C79.7475 18.1387 79.2942 18.224 78.8035 18.224C78.4408 18.224 78.1262 18.1867 77.8595 18.112C77.5928 18.0373 77.3582 17.936 77.1555 17.808C76.9635 17.68 76.7982 17.536 76.6595 17.376C76.5315 17.2053 76.4195 17.0293 76.3235 16.848H76.0355V21.2ZM78.1475 16.304C78.7768 16.304 79.2835 16.112 79.6675 15.728C80.0622 15.3333 80.2595 14.8 80.2595 14.128V13.936C80.2595 13.264 80.0622 12.736 79.6675 12.352C79.2835 11.9573 78.7768 11.76 78.1475 11.76C77.5182 11.76 77.0062 11.9627 76.6115 12.368C76.2275 12.7627 76.0355 13.2853 76.0355 13.936V14.128C76.0355 14.7787 76.2275 15.3067 76.6115 15.712C77.0062 16.1067 77.5182 16.304 78.1475 16.304ZM84.0084 10.064H86.3604V6.8H88.3764V10.064H91.2404V11.984H88.3764V15.6C88.3764 15.92 88.5204 16.08 88.8084 16.08H90.9524V18H87.5924C87.2297 18 86.931 17.8827 86.6964 17.648C86.4724 17.4133 86.3604 17.1147 86.3604 16.752V11.984H84.0084V10.064Z" fill="#E5E7EB"/>
<path d="M97.7093 16.304C98.1146 16.304 98.4453 16.2453 98.7013 16.128C98.9679 16 99.1706 15.8347 99.3093 15.632C99.4586 15.4187 99.5599 15.1787 99.6133 14.912C99.6666 14.6347 99.6933 14.352 99.6933 14.064V13.776H101.805V14.064C101.805 15.3973 101.453 16.4267 100.749 17.152C100.056 17.8667 99.0426 18.224 97.7093 18.224C96.4293 18.224 95.4159 17.8347 94.6693 17.056C93.9226 16.2773 93.5493 15.1413 93.5493 13.648V11.152C93.5493 10.4373 93.6453 9.79733 93.8372 9.232C94.0293 8.656 94.3066 8.176 94.6693 7.792C95.0319 7.39733 95.4693 7.09867 95.9813 6.896C96.4933 6.68267 97.0693 6.576 97.7093 6.576C98.3706 6.576 98.9573 6.672 99.4693 6.864C99.9813 7.056 100.408 7.33333 100.749 7.696C101.101 8.05867 101.363 8.496 101.533 9.008C101.715 9.52 101.805 10.096 101.805 10.736V11.024H99.6933V10.736C99.6933 10.4693 99.6613 10.2027 99.5973 9.936C99.5333 9.66933 99.4266 9.42933 99.2773 9.216C99.1279 9.00267 98.9253 8.832 98.6693 8.704C98.4133 8.56533 98.0933 8.496 97.7093 8.496C97.3573 8.496 97.0533 8.56533 96.7973 8.704C96.5413 8.832 96.3279 9.01333 96.1573 9.248C95.9866 9.472 95.8586 9.73867 95.7733 10.048C95.6986 10.3467 95.6613 10.6613 95.6613 10.992V13.808C95.6613 14.1707 95.6986 14.5067 95.7733 14.816C95.8479 15.1147 95.9653 15.376 96.1253 15.6C96.2853 15.824 96.4933 16 96.7493 16.128C97.0159 16.2453 97.3359 16.304 97.7093 16.304ZM103.89 6.8H106.002V15.984H111.09V18H103.89V6.8ZM113.527 6.8H121.015V8.816H118.327V15.984H121.015V18H113.527V15.984H116.215V8.816H113.527V6.8Z" fill="#10B981"/>
</svg>
